<svg width="229" height="48" viewBox="0 0 229 48" fill="none" xmlns="http://www.w3.org/2000/svg">
<path d="M49.7499 31.035V11.5221C49.7499 9.07642 47.7672 7.09378 45.3215 7.09378H45.1499C42.7042 7.09378 40.7216 9.07643 40.7216 11.5221V24.7048C40.7216 25.8204 40.3005 26.8949 39.5426 27.7135L33.837 33.8755C33.2198 34.5421 33.3454 35.6027 34.1013 36.1066L41.9735 41.3547C42.9544 42.0087 44.2684 41.3054 44.2684 40.1265V36.5164C44.2684 35.7596 44.8819 35.1461 45.6388 35.1461C47.9093 35.1461 49.7499 33.3055 49.7499 31.035Z" fill="#6C0FC9"/>
<path d="M49.7499 31.035V11.5221C49.7499 9.07642 47.7672 7.09378 45.3215 7.09378H45.1499C42.7042 7.09378 40.7216 9.07643 40.7216 11.5221V24.7048C40.7216 25.8204 40.3005 26.8949 39.5426 27.7135L33.837 33.8755C33.2198 34.5421 33.3454 35.6027 34.1013 36.1066L41.9735 41.3547C42.9544 42.0087 44.2684 41.3054 44.2684 40.1265V36.5164C44.2684 35.7596 44.8819 35.1461 45.6388 35.1461C47.9093 35.1461 49.7499 33.3055 49.7499 31.035Z" fill="#6C0FC9"/>
<path fill-rule="evenodd" clip-rule="evenodd" d="M34.273 0C36.4099 0 38.1422 1.73234 38.1422 3.86928V23.5476C38.1422 24.5738 37.7346 25.558 37.0089 26.2836L30.8921 32.4005C30.1664 33.1261 29.1823 33.5338 28.1561 33.5338H19.5466C19.3756 33.5338 19.2115 33.6017 19.0906 33.7226L11.9969 40.8163C11.5907 41.2226 10.896 40.9349 10.896 40.3603V34.1786C10.896 33.8225 10.6073 33.5338 10.2512 33.5338H4.28603C2.14908 33.5338 0.416748 31.8014 0.416748 29.6645V3.86928C0.416748 1.73234 2.14908 0 4.28603 0H34.273ZM12.5083 16.4444C12.5083 18.2252 11.0646 19.6688 9.28385 19.6688C7.50306 19.6688 6.05945 18.2252 6.05945 16.4444C6.05945 14.6637 7.50306 13.22 9.28385 13.22C11.0646 13.22 12.5083 14.6637 12.5083 16.4444ZM22.1815 16.4444C22.1815 18.2252 20.7378 19.6688 18.9571 19.6688C17.1763 19.6688 15.7327 18.2252 15.7327 16.4444C15.7327 14.6637 17.1763 13.22 18.9571 13.22C20.7378 13.22 22.1815 14.6637 22.1815 16.4444ZM28.6303 19.6688C30.411 19.6688 31.8547 18.2252 31.8547 16.4444C31.8547 14.6637 30.411 13.22 28.6303 13.22C26.8495 13.22 25.4059 14.6637 25.4059 16.4444C25.4059 18.2252 26.8495 19.6688 28.6303 19.6688Z" fill="#6C0FC9"/>
<g filter="url(#filter0_d_402_15)">
<path d="M61.4584 5.81818L65.2297 27.142H65.5237L76.3263 5.81818H80.5962L66.8277 32H62.2638L57.1885 5.81818H61.4584ZM93.5177 23.8565L95.4353 12.3636H99.2705L95.9978 32H92.2393L92.8146 28.5994H92.61C91.9964 29.6477 91.1271 30.5213 90.0021 31.2202C88.8856 31.9105 87.5901 32.2557 86.1157 32.2557C84.8543 32.2557 83.7847 31.9787 82.9069 31.4247C82.0376 30.8622 81.4197 30.0312 81.0532 28.9318C80.6867 27.8324 80.6356 26.473 80.8998 24.8537L82.9964 12.3636H86.8188L84.8117 24.3935C84.5986 25.7315 84.7989 26.7969 85.4126 27.5895C86.0262 28.3821 86.9211 28.7784 88.0972 28.7784C88.8131 28.7784 89.5546 28.5994 90.3217 28.2415C91.0887 27.8835 91.7663 27.3423 92.3543 26.6179C92.9509 25.8935 93.3387 24.973 93.5177 23.8565ZM108.459 32.3835C106.865 32.3835 105.514 31.9787 104.407 31.169C103.307 30.3509 102.527 29.1875 102.067 27.679C101.615 26.1619 101.564 24.3423 101.914 22.2202C102.272 20.098 102.932 18.2827 103.895 16.7741C104.858 15.2656 106.026 14.1108 107.398 13.3097C108.77 12.5085 110.249 12.108 111.834 12.108C113.053 12.108 113.999 12.3125 114.672 12.7216C115.354 13.1222 115.857 13.5909 116.181 14.1278C116.505 14.6648 116.747 15.1378 116.909 15.5469H117.127L118.75 5.81818H122.573L118.226 32H114.493L115.017 28.9446H114.698C114.399 29.3622 113.986 29.8395 113.458 30.3764C112.938 30.9134 112.273 31.3821 111.463 31.7827C110.654 32.1832 109.652 32.3835 108.459 32.3835ZM109.75 29.1236C110.85 29.1236 111.834 28.8338 112.703 28.2543C113.581 27.6662 114.31 26.8523 114.889 25.8125C115.478 24.7727 115.887 23.5625 116.117 22.1818C116.347 20.8182 116.343 19.625 116.104 18.6023C115.865 17.5795 115.405 16.7827 114.723 16.2116C114.041 15.6406 113.142 15.3551 112.026 15.3551C110.875 15.3551 109.874 15.6534 109.022 16.25C108.169 16.8466 107.47 17.6605 106.925 18.6918C106.388 19.723 106.013 20.8864 105.8 22.1818C105.578 23.4943 105.57 24.6747 105.774 25.723C105.979 26.7713 106.409 27.6023 107.066 28.2159C107.722 28.821 108.617 29.1236 109.75 29.1236ZM123.669 32L126.942 12.3636H130.764L127.491 32H123.669ZM129.652 9.29545C128.987 9.29545 128.425 9.07386 127.964 8.63068C127.513 8.17898 127.304 7.64205 127.338 7.01989C127.372 6.3892 127.636 5.85227 128.131 5.40909C128.625 4.95739 129.2 4.73153 129.856 4.73153C130.521 4.73153 131.079 4.95739 131.531 5.40909C131.983 5.85227 132.196 6.3892 132.17 7.01989C132.136 7.64205 131.872 8.17898 131.378 8.63068C130.892 9.07386 130.317 9.29545 129.652 9.29545ZM139.639 39.7727C138.071 39.7727 136.759 39.5682 135.702 39.1591C134.654 38.75 133.827 38.2088 133.222 37.5355C132.625 36.8622 132.212 36.125 131.982 35.3239L135.51 33.9688C135.681 34.3438 135.919 34.7401 136.226 35.1577C136.533 35.5838 136.989 35.946 137.594 36.2443C138.208 36.5426 139.047 36.6918 140.112 36.6918C141.561 36.6918 142.827 36.3381 143.909 35.6307C144.992 34.9318 145.661 33.8153 145.916 32.2812L146.517 28.4205H146.274C145.985 28.8381 145.584 29.3026 145.073 29.8139C144.561 30.3253 143.901 30.7685 143.091 31.1435C142.282 31.5185 141.276 31.706 140.074 31.706C138.523 31.706 137.185 31.3437 136.06 30.6193C134.943 29.8864 134.142 28.8082 133.657 27.3849C133.171 25.9531 133.103 24.1932 133.452 22.1051C133.793 20.017 134.441 18.2273 135.395 16.7358C136.358 15.2443 137.526 14.1023 138.898 13.3097C140.279 12.5085 141.757 12.108 143.334 12.108C144.553 12.108 145.503 12.3125 146.185 12.7216C146.875 13.1222 147.387 13.5909 147.719 14.1278C148.051 14.6648 148.294 15.1378 148.448 15.5469H148.729L149.253 12.3636H152.999L149.675 32.4347C149.402 34.1222 148.784 35.5071 147.821 36.5895C146.867 37.6719 145.678 38.473 144.255 38.9929C142.84 39.5128 141.301 39.7727 139.639 39.7727ZM141.378 28.5355C142.469 28.5355 143.441 28.2798 144.293 27.7685C145.154 27.2486 145.87 26.5071 146.441 25.544C147.012 24.5724 147.408 23.4091 147.63 22.054C147.851 20.733 147.838 19.5696 147.591 18.5639C147.353 17.5582 146.888 16.7741 146.198 16.2116C145.516 15.6406 144.625 15.3551 143.526 15.3551C142.367 15.3551 141.361 15.6534 140.509 16.25C139.657 16.8381 138.962 17.6392 138.425 18.6534C137.897 19.6676 137.526 20.8011 137.313 22.054C137.108 23.3409 137.112 24.4702 137.326 25.4418C137.547 26.4134 137.99 27.1719 138.655 27.7173C139.32 28.2628 140.228 28.5355 141.378 28.5355ZM154.853 32L158.125 12.3636H161.82L161.296 15.483H161.5C162.029 14.4261 162.8 13.5952 163.814 12.9901C164.828 12.3764 165.911 12.0696 167.061 12.0696C167.309 12.0696 167.59 12.0781 167.905 12.0952C168.22 12.1037 168.476 12.125 168.672 12.1591L168.059 15.8153C167.914 15.7727 167.649 15.7259 167.266 15.6747C166.882 15.6151 166.486 15.5852 166.077 15.5852C165.182 15.5852 164.351 15.777 163.584 16.1605C162.817 16.5355 162.174 17.0597 161.654 17.733C161.134 18.3977 160.797 19.1562 160.644 20.0085L158.675 32H154.853ZM174.227 32.4347C172.983 32.4347 171.896 32.2045 170.967 31.7443C170.038 31.2756 169.352 30.598 168.909 29.7116C168.465 28.8253 168.35 27.7386 168.563 26.4517C168.751 25.3437 169.117 24.4318 169.663 23.7159C170.217 23 170.89 22.4332 171.683 22.0156C172.475 21.5895 173.336 21.2699 174.265 21.0568C175.194 20.8437 176.132 20.6861 177.078 20.5838C178.271 20.4474 179.238 20.3324 179.98 20.2386C180.73 20.1449 181.292 20 181.667 19.804C182.042 19.5994 182.268 19.267 182.345 18.8068V18.7173C182.524 17.6094 182.362 16.7486 181.859 16.1349C181.365 15.5128 180.504 15.2017 179.277 15.2017C177.998 15.2017 176.924 15.483 176.055 16.0455C175.194 16.608 174.559 17.2386 174.15 17.9375L170.724 17.1193C171.338 15.9261 172.117 14.9631 173.063 14.2301C174.018 13.4886 175.062 12.9517 176.196 12.6193C177.329 12.2784 178.488 12.108 179.673 12.108C180.457 12.108 181.271 12.2017 182.115 12.3892C182.958 12.5682 183.725 12.9006 184.416 13.3864C185.115 13.8722 185.635 14.5668 185.975 15.4702C186.316 16.3651 186.367 17.5284 186.129 18.9602L183.968 32H180.235L180.696 29.3153H180.542C180.218 29.8097 179.767 30.2955 179.187 30.7727C178.616 31.25 177.917 31.6463 177.09 31.9616C176.264 32.277 175.309 32.4347 174.227 32.4347ZM175.531 29.3665C176.596 29.3665 177.538 29.1577 178.356 28.7401C179.183 28.3224 179.852 27.777 180.363 27.1037C180.875 26.4219 181.194 25.6932 181.322 24.9176L181.744 22.3864C181.582 22.5227 181.296 22.6463 180.887 22.7571C180.487 22.8679 180.035 22.9659 179.532 23.0511C179.029 23.1364 178.535 23.2088 178.049 23.2685C177.572 23.3281 177.176 23.3835 176.86 23.4347C176.11 23.5284 175.407 23.6861 174.751 23.9077C174.103 24.1293 173.562 24.4489 173.127 24.8665C172.693 25.2756 172.42 25.821 172.309 26.5028C172.156 27.4489 172.382 28.1648 172.987 28.6506C173.6 29.1278 174.448 29.3665 175.531 29.3665ZM189.072 32L192.345 12.3636H196.014L195.477 15.5597H195.72C196.317 14.4773 197.126 13.6335 198.149 13.0284C199.18 12.4148 200.348 12.108 201.652 12.108C202.947 12.108 203.991 12.4148 204.784 13.0284C205.585 13.642 206.109 14.4858 206.356 15.5597H206.561C207.192 14.5028 208.074 13.6634 209.207 13.0412C210.341 12.419 211.615 12.108 213.03 12.108C214.794 12.108 216.149 12.6705 217.095 13.7955C218.05 14.9119 218.339 16.5909 217.964 18.8324L215.766 32H211.93L214.078 19.1903C214.291 17.8523 214.087 16.8892 213.464 16.3011C212.842 15.7045 212.028 15.4062 211.023 15.4062C209.778 15.4062 208.747 15.7898 207.929 16.5568C207.111 17.3153 206.608 18.2912 206.42 19.4844L204.311 32H200.514L202.7 18.9474C202.871 17.8736 202.675 17.017 202.112 16.3778C201.558 15.7301 200.749 15.4062 199.683 15.4062C198.959 15.4062 198.256 15.598 197.574 15.9815C196.9 16.3651 196.325 16.8935 195.848 17.5668C195.371 18.2401 195.06 19.0156 194.915 19.8935L192.895 32H189.072Z" fill="white"/>
</g>
<defs>
<filter id="filter0_d_402_15" x="53.1885" y="4.73154" width="169.338" height="43.0412" filterUnits="userSpaceOnUse" color-interpolation-filters="sRGB">
<feFlood flood-opacity="0" result="BackgroundImageFix"/>
<feColorMatrix in="SourceAlpha" type="matrix" values="0 0 0 0 0 0 0 0 0 0 0 0 0 0 0 0 0 0 127 0" result="hardAlpha"/>
<feOffset dy="4"/>
<feGaussianBlur stdDeviation="2"/>
<feComposite in2="hardAlpha" operator="out"/>
<feColorMatrix type="matrix" values="0 0 0 0 0 0 0 0 0 0 0 0 0 0 0 0 0 0 0.25 0"/>
<feBlend mode="normal" in2="BackgroundImageFix" result="effect1_dropShadow_402_15"/>
<feBlend mode="normal" in="SourceGraphic" in2="effect1_dropShadow_402_15" result="shape"/>
</filter>
</defs>
</svg>
